<svg id="visual" viewBox="0 0 960 540" width="960" height="540" xmlns="http://www.w3.org/2000/svg" xmlns:xlink="http://www.w3.org/1999/xlink" version="1.1"><path d="M0 66L17.8 61.5C35.7 57 71.3 48 106.8 48C142.3 48 177.7 57 213.2 60.5C248.7 64 284.3 62 320 61C355.7 60 391.3 60 426.8 59.2C462.3 58.3 497.7 56.7 533.2 52.2C568.7 47.7 604.3 40.3 640 37.7C675.7 35 711.3 37 746.8 41.5C782.3 46 817.7 53 853.2 53.8C888.7 54.7 924.3 49.3 942.2 46.7L960 44L960 0L942.2 0C924.3 0 888.7 0 853.2 0C817.7 0 782.3 0 746.8 0C711.3 0 675.7 0 640 0C604.3 0 568.7 0 533.2 0C497.7 0 462.3 0 426.8 0C391.3 0 355.7 0 320 0C284.3 0 248.7 0 213.2 0C177.7 0 142.3 0 106.8 0C71.3 0 35.7 0 17.8 0L0 0Z" fill="#3f61a4"></path><path d="M0 104L17.8 101.2C35.7 98.3 71.3 92.7 106.8 94.3C142.3 96 177.7 105 213.2 105C248.7 105 284.3 96 320 93.3C355.7 90.7 391.3 94.3 426.8 95.3C462.3 96.3 497.7 94.7 533.2 92C568.7 89.3 604.3 85.7 640 81.2C675.7 76.7 711.3 71.3 746.8 73.2C782.3 75 817.7 84 853.2 84C888.7 84 924.3 75 942.2 70.5L960 66L960 42L942.2 44.7C924.3 47.3 888.7 52.7 853.2 51.8C817.7 51 782.3 44 746.8 39.5C711.3 35 675.7 33 640 35.7C604.3 38.3 568.7 45.7 533.2 50.2C497.7 54.7 462.3 56.3 426.8 57.2C391.3 58 355.7 58 320 59C284.3 60 248.7 62 213.2 58.5C177.7 55 142.3 46 106.8 46C71.3 46 35.7 55 17.8 59.5L0 64Z" fill="#35589b"></path><path d="M0 239L17.8 229C35.7 219 71.3 199 106.8 197.2C142.3 195.3 177.7 211.7 213.2 212.7C248.7 213.7 284.3 199.3 320 193C355.7 186.7 391.3 188.3 426.8 187.3C462.3 186.3 497.7 182.7 533.2 180.8C568.7 179 604.3 179 640 182.7C675.7 186.3 711.3 193.7 746.8 201.8C782.3 210 817.7 219 853.2 219.8C888.7 220.7 924.3 213.3 942.2 209.7L960 206L960 64L942.2 68.5C924.3 73 888.7 82 853.2 82C817.7 82 782.3 73 746.8 71.2C711.3 69.3 675.7 74.7 640 79.2C604.3 83.7 568.7 87.3 533.2 90C497.7 92.7 462.3 94.3 426.8 93.3C391.3 92.3 355.7 88.7 320 91.3C284.3 94 248.7 103 213.2 103C177.7 103 142.3 94 106.8 92.3C71.3 90.7 35.7 96.3 17.8 99.2L0 102Z" fill="#2b4f92"></path><path d="M0 282L17.8 271.2C35.7 260.3 71.3 238.7 106.8 235C142.3 231.3 177.7 245.7 213.2 243.8C248.7 242 284.3 224 320 219.5C355.7 215 391.3 224 426.8 225.8C462.3 227.7 497.7 222.3 533.2 217.8C568.7 213.3 604.3 209.7 640 215C675.7 220.3 711.3 234.7 746.8 245.5C782.3 256.3 817.7 263.7 853.2 261C888.7 258.3 924.3 245.7 942.2 239.3L960 233L960 204L942.2 207.7C924.3 211.3 888.7 218.7 853.2 217.8C817.7 217 782.3 208 746.8 199.8C711.3 191.7 675.7 184.3 640 180.7C604.3 177 568.7 177 533.2 178.8C497.7 180.7 462.3 184.3 426.8 185.3C391.3 186.3 355.7 184.7 320 191C284.3 197.3 248.7 211.7 213.2 210.7C177.7 209.7 142.3 193.3 106.8 195.2C71.3 197 35.7 217 17.8 227L0 237Z" fill="#204689"></path><path d="M0 330L17.8 322.8C35.7 315.7 71.3 301.3 106.8 297.8C142.3 294.3 177.7 301.7 213.2 305.3C248.7 309 284.3 309 320 310.8C355.7 312.7 391.3 316.3 426.8 310C462.3 303.7 497.7 287.3 533.2 284.5C568.7 281.7 604.3 292.3 640 296C675.7 299.7 711.3 296.3 746.8 298.2C782.3 300 817.7 307 853.2 307C888.7 307 924.3 300 942.2 296.5L960 293L960 231L942.2 237.3C924.3 243.7 888.7 256.3 853.2 259C817.7 261.7 782.3 254.3 746.8 243.5C711.3 232.7 675.7 218.3 640 213C604.3 207.7 568.7 211.3 533.2 215.8C497.7 220.3 462.3 225.7 426.8 223.8C391.3 222 355.7 213 320 217.5C284.3 222 248.7 240 213.2 241.8C177.7 243.7 142.3 229.3 106.8 233C71.3 236.7 35.7 258.3 17.8 269.2L0 280Z" fill="#133d80"></path><path d="M0 374L17.8 368.5C35.7 363 71.3 352 106.8 352.8C142.3 353.7 177.7 366.3 213.2 367.3C248.7 368.3 284.3 357.7 320 356.8C355.7 356 391.3 365 426.8 364C462.3 363 497.7 352 533.2 352C568.7 352 604.3 363 640 366.7C675.7 370.3 711.3 366.7 746.8 367.5C782.3 368.3 817.7 373.7 853.2 370C888.7 366.3 924.3 353.7 942.2 347.3L960 341L960 291L942.2 294.5C924.3 298 888.7 305 853.2 305C817.7 305 782.3 298 746.8 296.2C711.3 294.3 675.7 297.7 640 294C604.3 290.3 568.7 279.7 533.2 282.5C497.7 285.3 462.3 301.7 426.8 308C391.3 314.3 355.7 310.7 320 308.8C284.3 307 248.7 307 213.2 303.3C177.7 299.7 142.3 292.3 106.8 295.8C71.3 299.3 35.7 313.7 17.8 320.8L0 328Z" fill="#103977"></path><path d="M0 492L17.8 492C35.7 492 71.3 492 106.8 491.2C142.3 490.3 177.7 488.7 213.2 485.2C248.7 481.7 284.3 476.3 320 473.7C355.7 471 391.3 471 426.8 475.5C462.3 480 497.7 489 533.2 489.8C568.7 490.7 604.3 483.3 640 478.8C675.7 474.3 711.3 472.7 746.8 472.7C782.3 472.7 817.7 474.3 853.2 476.2C888.7 478 924.3 480 942.2 481L960 482L960 339L942.2 345.3C924.3 351.7 888.7 364.3 853.2 368C817.7 371.7 782.3 366.3 746.8 365.5C711.3 364.7 675.7 368.3 640 364.7C604.3 361 568.7 350 533.2 350C497.7 350 462.3 361 426.8 362C391.3 363 355.7 354 320 354.8C284.3 355.7 248.7 366.3 213.2 365.3C177.7 364.3 142.3 351.7 106.8 350.8C71.3 350 35.7 361 17.8 366.5L0 372Z" fill="#0d366f"></path><path d="M0 525L17.8 525C35.7 525 71.3 525 106.8 525C142.3 525 177.7 525 213.2 523.2C248.7 521.3 284.3 517.7 320 515C355.7 512.3 391.3 510.7 426.8 511.5C462.3 512.3 497.7 515.7 533.2 516.5C568.7 517.3 604.3 515.7 640 513C675.7 510.3 711.3 506.7 746.8 506.7C782.3 506.7 817.7 510.3 853.2 511.3C888.7 512.3 924.3 510.7 942.2 509.8L960 509L960 480L942.2 479C924.3 478 888.7 476 853.2 474.2C817.7 472.3 782.3 470.7 746.8 470.7C711.3 470.7 675.7 472.3 640 476.8C604.3 481.3 568.7 488.7 533.2 487.8C497.7 487 462.3 478 426.8 473.5C391.3 469 355.7 469 320 471.7C284.3 474.3 248.7 479.7 213.2 483.2C177.7 486.7 142.3 488.3 106.8 489.2C71.3 490 35.7 490 17.8 490L0 490Z" fill="#0b3266"></path><path d="M0 541L17.8 541C35.7 541 71.3 541 106.8 541C142.3 541 177.7 541 213.2 541C248.7 541 284.3 541 320 541C355.7 541 391.3 541 426.8 541C462.3 541 497.7 541 533.2 541C568.7 541 604.3 541 640 541C675.7 541 711.3 541 746.8 541C782.3 541 817.7 541 853.2 541C888.7 541 924.3 541 942.2 541L960 541L960 507L942.2 507.8C924.3 508.7 888.7 510.3 853.2 509.3C817.7 508.3 782.3 504.7 746.8 504.7C711.3 504.7 675.7 508.3 640 511C604.3 513.7 568.7 515.3 533.2 514.5C497.7 513.7 462.3 510.3 426.8 509.5C391.3 508.7 355.7 510.3 320 513C284.3 515.7 248.7 519.3 213.2 521.2C177.7 523 142.3 523 106.8 523C71.3 523 35.7 523 17.8 523L0 523Z" fill="#092e5e"></path></svg>